<svg width="16" height="20" viewBox="0 0 16 20" fill="none" xmlns="http://www.w3.org/2000/svg">
<g clip-path="url(#clip0_102_28106)">
<path d="M6.85995 7.953C6.85995 7.40831 7.30151 6.96676 7.8462 6.96676H7.85747C8.40216 6.96676 8.84372 7.40831 8.84372 7.953C8.84372 8.49769 8.40216 8.93925 7.85747 8.93925H7.8462C7.30151 8.93925 6.85995 8.49769 6.85995 7.953Z" fill="#757575"/>
<path d="M7 9.93795C6.58579 9.93795 6.25 10.2737 6.25 10.6879C6.25 11.1022 6.58579 11.4379 7 11.4379H7.25V14.0469C7.25 14.4611 7.58579 14.7969 8 14.7969H9C9.41421 14.7969 9.75 14.4611 9.75 14.0469C9.75 13.6327 9.41421 13.2969 9 13.2969H8.75V10.6879C8.75 10.2737 8.41421 9.93795 8 9.93795H7Z" fill="#757575"/>
<path fill-rule="evenodd" clip-rule="evenodd" d="M15 11C15 14.866 11.866 18 8 18C4.13401 18 1 14.866 1 11C1 7.13401 4.13401 4 8 4C11.866 4 15 7.13401 15 11ZM13.6 11C13.6 14.0928 11.0928 16.6 8 16.6C4.90721 16.6 2.4 14.0928 2.4 11C2.4 7.90721 4.90721 5.4 8 5.4C11.0928 5.4 13.6 7.90721 13.6 11Z" fill="#757575"/>
</g>
<defs>
<clipPath id="clip0_102_28106">
<rect width="16" height="20" fill="white"/>
</clipPath>
</defs>
</svg>
