<svg width="26" height="26" viewBox="0 0 26 26" fill="none" xmlns="http://www.w3.org/2000/svg">
<path d="M19.9893 8.75879C21.0081 8.75885 21.9246 8.94 22.7402 9.30078C23.5574 9.66009 24.23 10.2299 24.7598 11.0078C25.2429 11.6938 25.5538 12.4902 25.6953 13.3945C25.7781 13.9232 25.8104 14.6894 25.7969 15.6855H17.2734C17.3246 16.8423 17.7284 17.6544 18.499 18.1191C18.9655 18.4086 19.5266 18.5546 20.1855 18.5547C20.8794 18.5547 21.4469 18.3773 21.8818 18.0254C22.1211 17.8339 22.3321 17.5699 22.5127 17.2314H25.6357C25.5529 17.9144 25.1741 18.6107 24.5029 19.3174C23.4553 20.4385 21.9876 21 20.1016 21C18.5438 21 17.17 20.5274 15.9824 19.5801C14.7888 18.6342 14.1953 17.0932 14.1953 14.9609C14.1953 12.9609 14.7326 11.427 15.8057 10.3594C16.8819 9.29469 18.2749 8.75879 19.9893 8.75879ZM7.84473 5C9.77436 5.02821 11.14 5.58207 11.9453 6.66309C12.4284 7.32683 12.6709 8.11986 12.6709 9.04492C12.6709 9.99671 12.4286 10.7646 11.9395 11.3438C11.6655 11.6675 11.2628 11.9642 10.7314 12.2314C11.5381 12.5225 12.1466 12.9814 12.5605 13.6094C12.97 14.236 13.1768 14.9996 13.1768 15.8965C13.1767 16.8214 12.9417 17.6513 12.4707 18.3848C12.1727 18.8703 11.7991 19.2807 11.3506 19.6133C10.8464 19.9949 10.2513 20.2549 9.56348 20.3975C8.87585 20.5384 8.13253 20.6064 7.3291 20.6064H0.200195V5H7.84473ZM3.35352 13.7354V17.8984H7.19434C7.8807 17.8984 8.41704 17.8057 8.79785 17.623C9.49163 17.2815 9.83789 16.634 9.83789 15.6748C9.83782 14.8613 9.50372 14.3044 8.83105 14C8.45477 13.8307 7.92632 13.7413 7.24902 13.7354H3.35352ZM19.9902 11.249C19.2076 11.249 18.596 11.4687 18.1641 11.9082C17.7323 12.3477 17.46 12.9432 17.3486 13.6943H22.6211C22.5654 12.8925 22.2913 12.2864 21.8066 11.8691C21.316 11.455 20.7126 11.249 19.9902 11.249ZM3.35352 7.70996V11.1533H7.20117C7.88585 11.1533 8.4446 11.024 8.875 10.7656C9.30215 10.5072 9.51758 10.0496 9.51758 9.39648C9.51748 8.66759 9.23382 8.1877 8.66797 7.95312C8.17745 7.7914 7.55452 7.70999 6.79785 7.70996H3.35352ZM23.3379 7.66992H16.5586V5.72754H23.3379V7.66992Z" fill="white"/>
</svg>
