<svg width="26" height="26" viewBox="0 0 26 26" fill="none" xmlns="http://www.w3.org/2000/svg">
<path d="M13 0C5.824 0 0 5.824 0 13C0 20.176 5.824 26 13 26C20.15 26 26 20.176 26 13C26 5.824 20.15 0 13 0ZM21.58 5.98C23.14 7.878 24.05 10.27 24.102 12.896C23.738 12.818 20.072 12.09 16.38 12.532C16.302 12.35 16.224 12.142 16.146 11.96C15.912 11.414 15.678 10.868 15.418 10.348C19.474 8.71 21.346 6.292 21.58 5.98ZM13 1.924C15.808 1.924 18.408 2.99 20.358 4.706C20.15 4.992 18.486 7.228 14.534 8.71C12.714 5.356 10.686 2.626 10.4 2.21C11.232 2.028 12.09 1.924 13 1.924ZM8.268 2.964C8.554 3.354 10.53 6.11 12.376 9.386C7.176 10.764 2.6 10.738 2.106 10.738C2.86 7.28 5.174 4.42 8.268 2.964ZM1.898 13.026C1.898 12.922 1.898 12.792 1.898 12.688C2.366 12.714 7.774 12.766 13.312 11.102C13.624 11.726 13.936 12.35 14.222 13C14.092 13.052 13.936 13.078 13.78 13.13C8.06 14.976 5.018 20.02 4.758 20.436C2.964 18.46 1.898 15.86 1.898 13.026ZM13 24.102C10.426 24.102 8.06 23.218 6.188 21.762C6.396 21.346 8.632 17.004 14.898 14.82C14.924 14.794 14.95 14.794 14.976 14.794C16.536 18.85 17.186 22.23 17.342 23.218C16.016 23.79 14.534 24.102 13 24.102ZM19.188 22.204C19.084 21.528 18.486 18.278 17.03 14.3C20.514 13.754 23.556 14.664 23.946 14.768C23.452 17.862 21.684 20.54 19.188 22.204Z" fill="white"/>
</svg>
