<svg width="28" height="28" viewBox="0 0 28 28" fill="none" xmlns="http://www.w3.org/2000/svg">
<path d="M4.66667 6.99992L11.7922 12.3809L11.7946 12.3829C12.5858 12.9631 12.9817 13.2534 13.4152 13.3655C13.7984 13.4646 14.2013 13.4646 14.5845 13.3655C15.0184 13.2533 15.4154 12.9621 16.208 12.3809C16.208 12.3809 20.7784 8.87352 23.3333 6.99992M3.5 18.4335V9.56681C3.5 8.26002 3.5 7.60614 3.75432 7.10702C3.97802 6.66797 4.33472 6.31127 4.77376 6.08757C5.27289 5.83325 5.92677 5.83325 7.23356 5.83325H20.7669C22.0737 5.83325 22.7262 5.83325 23.2253 6.08757C23.6643 6.31127 24.0222 6.66797 24.2459 7.10702C24.5 7.60565 24.5 8.25875 24.5 9.56298V18.4374C24.5 19.7417 24.5 20.3938 24.2459 20.8924C24.0222 21.3315 23.6643 21.6888 23.2253 21.9125C22.7267 22.1666 22.0745 22.1666 20.7703 22.1666H7.22973C5.92549 22.1666 5.2724 22.1666 4.77376 21.9125C4.33472 21.6888 3.97802 21.3315 3.75432 20.8924C3.5 20.3933 3.5 19.7403 3.5 18.4335Z" stroke="white" stroke-width="2" stroke-linecap="round" stroke-linejoin="round"/>
</svg>
