<svg width="26" height="26" viewBox="0 0 26 26" fill="none" xmlns="http://www.w3.org/2000/svg">
<path d="M1.78736 11.4709C8.76667 8.36626 13.4206 6.31946 15.7493 5.33055C22.3979 2.507 23.7795 2.01653 24.68 2.00016C24.878 1.99677 25.3208 2.04688 25.6077 2.28453C25.8499 2.48519 25.9165 2.75626 25.9484 2.94651C25.9803 3.13676 26.02 3.57015 25.9884 3.9088C25.6281 7.77401 24.0692 17.1539 23.276 21.483C22.9404 23.3148 22.2796 23.929 21.6399 23.9891C20.2496 24.1197 19.1938 23.051 17.8473 22.1497C15.7401 20.7395 14.5498 19.8615 12.5044 18.4854C10.1407 16.895 11.673 16.0209 13.0201 14.5923C13.3726 14.2185 19.4983 8.52954 19.6169 8.01346C19.6317 7.94892 19.6455 7.70833 19.5055 7.58129C19.3655 7.45425 19.1589 7.4977 19.0098 7.53225C18.7985 7.58122 15.4323 9.85289 8.91132 14.3473C7.95585 15.0172 7.09041 15.3435 6.31501 15.3264C5.46019 15.3076 3.81586 14.833 2.59347 14.4273C1.09416 13.9296 -0.0974648 13.6666 0.00629874 12.8215C0.0603452 12.3813 0.654034 11.9311 1.78736 11.4709Z" fill="white"/>
</svg>
